<svg xmlns="http://www.w3.org/2000/svg" viewBox="0 0 64 64" width="512" height="512" fill="none" role="img" aria-label="Betula">
  <rect width="64" height="64" fill="#0e2b1a"></rect>
  <path d="M12 12L26 12" stroke="#f3f0e8" stroke-width="2.2" stroke-linecap="round"></path>
  <path d="M36 12L48 12" stroke="#f3f0e8" stroke-width="2.2" stroke-linecap="round"></path>
  <path d="M18 19L26 19" stroke="#E0A81C" stroke-width="2.2" stroke-linecap="round"></path>
  <path d="M40 19L54 19" stroke="#f3f0e8" stroke-width="2.2" stroke-linecap="round"></path>
  <path d="M10 26L20 26" stroke="#f3f0e8" stroke-width="2.2" stroke-linecap="round"></path>
  <path d="M28 26L42 26" stroke="#f3f0e8" stroke-width="2.2" stroke-linecap="round"></path>
  <path d="M46 33L56 33" stroke="#f3f0e8" stroke-width="2.2" stroke-linecap="round"></path>
  <path d="M10 33L20 33" stroke="#f3f0e8" stroke-width="2.2" stroke-linecap="round"></path>
  <path d="M14 40L28 40" stroke="#f3f0e8" stroke-width="2.2" stroke-linecap="round"></path>
  <path d="M36 40L50 40" stroke="#f3f0e8" stroke-width="2.2" stroke-linecap="round"></path>
  <path d="M12 47L24 47" stroke="#f3f0e8" stroke-width="2.2" stroke-linecap="round"></path>
  <path d="M32 47L46 47" stroke="#f3f0e8" stroke-width="2.2" stroke-linecap="round"></path>
  <path d="M18 54L30 54" stroke="#f3f0e8" stroke-width="2.2" stroke-linecap="round"></path>
  <path d="M40 54L52 54" stroke="#f3f0e8" stroke-width="2.2" stroke-linecap="round"></path>
  <path d="M28 33C31.5 30.5 36.5 30.5 40 33C36.5 35.5 31.5 35.5 28 33Z" stroke="#f3f0e8" stroke-width="1.4" stroke-linejoin="round"></path>
  <circle cx="34" cy="33" r="1.4" fill="#E0A81C"></circle>
</svg>