<svg xmlns="http://www.w3.org/2000/svg" viewBox="0 0 64 64" width="512" height="512" fill="none" role="img" aria-label="Claytonia">
  <rect width="64" height="64" fill="#0e2b1a"></rect>
  <g transform="rotate(0 32 32)"><path d="M32 30C27.5 28 25 22 25 15C25 8.5 27.5 4.5 30.8 6L32 7.5L33.2 6C36.5 4.5 39 8.5 39 15C39 22 36.5 28 32 30Z" stroke="#f3f0e8" stroke-width="2.2" stroke-linejoin="round"></path><path d="M32 27.5C31.5 21 32.5 14 32 9" stroke="#E0A81C" stroke-width="1.4" stroke-linecap="round"></path><path d="M30.3 27C29.2 22 28.8 17 29.3 11" stroke="#E0A81C" stroke-width="1.4" stroke-linecap="round"></path><path d="M33.7 27C34.8 22 35.2 17 34.7 11" stroke="#E0A81C" stroke-width="1.4" stroke-linecap="round"></path></g>
  <g transform="rotate(72 32 32)"><path d="M32 30C27.5 28 25 22 25 15C25 8.5 27.5 4.5 30.8 6L32 7.5L33.2 6C36.5 4.5 39 8.5 39 15C39 22 36.5 28 32 30Z" stroke="#f3f0e8" stroke-width="2.2" stroke-linejoin="round"></path><path d="M32 27.5C31.5 21 32.5 14 32 9" stroke="#E0A81C" stroke-width="1.4" stroke-linecap="round"></path><path d="M30.3 27C29.2 22 28.8 17 29.3 11" stroke="#E0A81C" stroke-width="1.4" stroke-linecap="round"></path><path d="M33.7 27C34.8 22 35.2 17 34.7 11" stroke="#E0A81C" stroke-width="1.4" stroke-linecap="round"></path></g>
  <g transform="rotate(144 32 32)"><path d="M32 30C27.5 28 25 22 25 15C25 8.5 27.5 4.5 30.8 6L32 7.5L33.2 6C36.5 4.5 39 8.5 39 15C39 22 36.5 28 32 30Z" stroke="#f3f0e8" stroke-width="2.2" stroke-linejoin="round"></path><path d="M32 27.5C31.5 21 32.5 14 32 9" stroke="#E0A81C" stroke-width="1.4" stroke-linecap="round"></path><path d="M30.3 27C29.2 22 28.8 17 29.3 11" stroke="#E0A81C" stroke-width="1.4" stroke-linecap="round"></path><path d="M33.7 27C34.8 22 35.2 17 34.7 11" stroke="#E0A81C" stroke-width="1.4" stroke-linecap="round"></path></g>
  <g transform="rotate(216 32 32)"><path d="M32 30C27.5 28 25 22 25 15C25 8.5 27.5 4.5 30.8 6L32 7.5L33.2 6C36.5 4.5 39 8.5 39 15C39 22 36.5 28 32 30Z" stroke="#f3f0e8" stroke-width="2.2" stroke-linejoin="round"></path><path d="M32 27.5C31.5 21 32.5 14 32 9" stroke="#E0A81C" stroke-width="1.4" stroke-linecap="round"></path><path d="M30.3 27C29.2 22 28.8 17 29.3 11" stroke="#E0A81C" stroke-width="1.4" stroke-linecap="round"></path><path d="M33.7 27C34.8 22 35.2 17 34.7 11" stroke="#E0A81C" stroke-width="1.4" stroke-linecap="round"></path></g>
  <g transform="rotate(288 32 32)"><path d="M32 30C27.5 28 25 22 25 15C25 8.5 27.5 4.5 30.8 6L32 7.5L33.2 6C36.5 4.5 39 8.5 39 15C39 22 36.5 28 32 30Z" stroke="#f3f0e8" stroke-width="2.2" stroke-linejoin="round"></path><path d="M32 27.5C31.5 21 32.5 14 32 9" stroke="#E0A81C" stroke-width="1.4" stroke-linecap="round"></path><path d="M30.3 27C29.2 22 28.8 17 29.3 11" stroke="#E0A81C" stroke-width="1.4" stroke-linecap="round"></path><path d="M33.7 27C34.8 22 35.2 17 34.7 11" stroke="#E0A81C" stroke-width="1.4" stroke-linecap="round"></path></g>
  <circle cx="32" cy="32" r="3.6" stroke="#f3f0e8" stroke-width="1.4"></circle>
</svg>