<svg xmlns="http://www.w3.org/2000/svg" viewBox="0 0 64 64" width="512" height="512" fill="none" role="img" aria-label="Drosera">
  <rect width="64" height="64" fill="#0e2b1a"></rect>
  <g transform="rotate(0 32 32)"><path d="M32 30L32 21" stroke="#f3f0e8" stroke-width="2.2" stroke-linecap="round"></path><ellipse cx="32" cy="14" rx="5.5" ry="7" stroke="#f3f0e8" stroke-width="2.2"></ellipse><circle cx="32" cy="4.5" r="1.5" fill="#E0A81C"></circle><circle cx="25.6" cy="9" r="1.5" fill="#E0A81C"></circle><circle cx="38.4" cy="9" r="1.5" fill="#E0A81C"></circle></g>
  <g transform="rotate(72 32 32)"><path d="M32 30L32 21" stroke="#f3f0e8" stroke-width="2.2" stroke-linecap="round"></path><ellipse cx="32" cy="14" rx="5.5" ry="7" stroke="#f3f0e8" stroke-width="2.2"></ellipse><circle cx="32" cy="4.5" r="1.5" fill="#E0A81C"></circle><circle cx="25.6" cy="9" r="1.5" fill="#E0A81C"></circle><circle cx="38.4" cy="9" r="1.5" fill="#E0A81C"></circle></g>
  <g transform="rotate(144 32 32)"><path d="M32 30L32 21" stroke="#f3f0e8" stroke-width="2.2" stroke-linecap="round"></path><ellipse cx="32" cy="14" rx="5.5" ry="7" stroke="#f3f0e8" stroke-width="2.2"></ellipse><circle cx="32" cy="4.5" r="1.5" fill="#E0A81C"></circle><circle cx="25.6" cy="9" r="1.5" fill="#E0A81C"></circle><circle cx="38.4" cy="9" r="1.5" fill="#E0A81C"></circle></g>
  <g transform="rotate(216 32 32)"><path d="M32 30L32 21" stroke="#f3f0e8" stroke-width="2.2" stroke-linecap="round"></path><ellipse cx="32" cy="14" rx="5.5" ry="7" stroke="#f3f0e8" stroke-width="2.2"></ellipse><circle cx="32" cy="4.5" r="1.5" fill="#E0A81C"></circle><circle cx="25.6" cy="9" r="1.5" fill="#E0A81C"></circle><circle cx="38.4" cy="9" r="1.5" fill="#E0A81C"></circle></g>
  <g transform="rotate(288 32 32)"><path d="M32 30L32 21" stroke="#f3f0e8" stroke-width="2.2" stroke-linecap="round"></path><ellipse cx="32" cy="14" rx="5.5" ry="7" stroke="#f3f0e8" stroke-width="2.2"></ellipse><circle cx="32" cy="4.5" r="1.5" fill="#E0A81C"></circle><circle cx="25.6" cy="9" r="1.5" fill="#E0A81C"></circle><circle cx="38.4" cy="9" r="1.5" fill="#E0A81C"></circle></g>
  <circle cx="32" cy="32" r="4.4" fill="#0e2b1a" stroke="#f3f0e8" stroke-width="1.4"></circle>
</svg>