<svg xmlns="http://www.w3.org/2000/svg" viewBox="0 0 64 64" width="512" height="512" fill="none" role="img" aria-label="Kalmia">
  <rect width="64" height="64" fill="#0e2b1a"></rect>
  <path d="M32 8Q44.3 15 54.8 24.6Q52 38.5 46.1 51.4Q32 53 17.9 51.4Q12 38.5 9.2 24.6Q19.7 15 32 8Z" stroke="#f3f0e8" stroke-width="2.2" stroke-linejoin="round"></path>
  <path d="M37.9 23.9L41.5 35.1L32 42L22.5 35.1L26.1 23.9Z" stroke="#cdd6d0" stroke-width="1.4" stroke-linejoin="round"></path>
  <path d="M32 32L32 17" stroke="#cdd6d0" stroke-width="1.4" stroke-linecap="round"></path>
  <path d="M32 32L40.8 19.9" stroke="#cdd6d0" stroke-width="1.4" stroke-linecap="round"></path>
  <path d="M32 32L46.3 27.4" stroke="#cdd6d0" stroke-width="1.4" stroke-linecap="round"></path>
  <path d="M32 32L46.3 36.6" stroke="#cdd6d0" stroke-width="1.4" stroke-linecap="round"></path>
  <path d="M32 32L40.8 44.1" stroke="#cdd6d0" stroke-width="1.4" stroke-linecap="round"></path>
  <path d="M32 32L32 47" stroke="#cdd6d0" stroke-width="1.4" stroke-linecap="round"></path>
  <path d="M32 32L23.2 44.1" stroke="#cdd6d0" stroke-width="1.4" stroke-linecap="round"></path>
  <path d="M32 32L17.7 36.6" stroke="#cdd6d0" stroke-width="1.4" stroke-linecap="round"></path>
  <path d="M32 32L17.7 27.4" stroke="#cdd6d0" stroke-width="1.4" stroke-linecap="round"></path>
  <path d="M32 32L23.2 19.9" stroke="#cdd6d0" stroke-width="1.4" stroke-linecap="round"></path>
  <circle cx="32" cy="17" r="2" fill="#E0A81C"></circle>
  <circle cx="40.8" cy="19.9" r="2" fill="#E0A81C"></circle>
  <circle cx="46.3" cy="27.4" r="2" fill="#E0A81C"></circle>
  <circle cx="46.3" cy="36.6" r="2" fill="#E0A81C"></circle>
  <circle cx="40.8" cy="44.1" r="2" fill="#E0A81C"></circle>
  <circle cx="32" cy="47" r="2" fill="#E0A81C"></circle>
  <circle cx="23.2" cy="44.1" r="2" fill="#E0A81C"></circle>
  <circle cx="17.7" cy="36.6" r="2" fill="#E0A81C"></circle>
  <circle cx="17.7" cy="27.4" r="2" fill="#E0A81C"></circle>
  <circle cx="23.2" cy="19.9" r="2" fill="#E0A81C"></circle>
  <circle cx="32" cy="32" r="4.4" fill="#0e2b1a" stroke="#f3f0e8" stroke-width="1.4"></circle>
</svg>