<svg xmlns="http://www.w3.org/2000/svg" viewBox="0 0 64 64" width="512" height="512" fill="none" role="img" aria-label="Lupinus">
  <rect width="64" height="64" fill="#0e2b1a"></rect>
  <path d="M32 28V60" stroke="#f3f0e8" stroke-width="2.2" stroke-linecap="round" stroke-linejoin="round"></path>
  <path d="M32 22.97C31.59 22.32 30.23 20.41 29.55 19.05C28.87 17.69 27.88 16.13 27.91 14.79C27.93 13.46 29.02 11.95 29.7 11.04C30.38 10.13 31.23 9.34 32 9.34C32.77 9.34 33.62 10.13 34.3 11.04C34.98 11.95 36.07 13.46 36.09 14.79C36.12 16.13 35.13 17.69 34.45 19.05C33.77 20.41 32.41 22.32 32 22.97" stroke="#f3f0e8" stroke-width="2.2" stroke-linecap="round" stroke-linejoin="round"></path>
  <path d="M34.25 23.44C34.66 22.79 35.73 20.83 36.72 19.53C37.71 18.23 38.68 16.67 40.18 15.65C41.68 14.64 44.18 13.89 45.71 13.45C47.24 13.01 48.77 12.72 49.36 13C49.94 13.29 49.72 14.21 49.23 15.16C48.75 16.11 47.91 17.67 46.45 18.71C44.99 19.74 42.51 20.56 40.47 21.35C38.44 22.14 35.29 23.1 34.25 23.44" stroke="#f3f0e8" stroke-width="2.2" stroke-linecap="round" stroke-linejoin="round"></path>
  <path d="M35.45 24.65C36.49 24.3 39.48 23.19 41.68 22.57C43.88 21.94 46.35 21.11 48.62 20.89C50.89 20.67 53.64 21.03 55.31 21.26C56.97 21.49 58.46 21.84 58.59 22.28C58.72 22.72 57.53 23.34 56.1 23.89C54.68 24.44 52.31 25.32 50.04 25.56C47.78 25.81 44.96 25.52 42.53 25.37C40.1 25.21 36.63 24.77 35.45 24.65" stroke="#f3f0e8" stroke-width="2.2" stroke-linecap="round" stroke-linejoin="round"></path>
  <path d="M35.03 26.02C36.21 26.14 39.74 26.41 42.11 26.74C44.49 27.08 47.31 27.37 49.29 28.05C51.27 28.73 52.98 30.03 54 30.83C55.01 31.62 55.77 32.44 55.38 32.83C55 33.22 53.39 33.25 51.7 33.14C50 33.02 47.2 32.81 45.2 32.16C43.19 31.5 41.36 30.23 39.66 29.21C37.97 28.18 35.8 26.55 35.03 26.02" stroke="#f3f0e8" stroke-width="2.2" stroke-linecap="round" stroke-linejoin="round"></path>
  <path d="M33.2 26.91C33.97 27.44 36.37 28.96 37.81 30.11C39.26 31.25 41.1 32.52 41.86 33.78C42.63 35.04 42.5 36.67 42.39 37.66C42.29 38.65 41.95 39.56 41.23 39.72C40.51 39.87 39.25 39.29 38.07 38.58C36.9 37.86 34.99 36.65 34.18 35.4C33.36 34.15 33.37 32.49 33.21 31.08C33.04 29.66 33.2 27.6 33.2 26.91" stroke="#f3f0e8" stroke-width="2.2" stroke-linecap="round" stroke-linejoin="round"></path>
  <path d="M30.8 26.91C30.8 27.6 30.96 29.66 30.79 31.08C30.63 32.49 30.64 34.15 29.82 35.4C29.01 36.65 27.1 37.86 25.93 38.58C24.75 39.29 23.49 39.87 22.77 39.72C22.05 39.56 21.71 38.65 21.61 37.66C21.5 36.67 21.37 35.04 22.14 33.78C22.9 32.52 24.74 31.25 26.19 30.11C27.63 28.96 30.03 27.44 30.8 26.91" stroke="#f3f0e8" stroke-width="2.2" stroke-linecap="round" stroke-linejoin="round"></path>
  <path d="M28.97 26.02C28.2 26.55 26.03 28.18 24.34 29.21C22.64 30.23 20.81 31.5 18.8 32.16C16.8 32.81 14 33.02 12.3 33.14C10.61 33.25 9 33.22 8.62 32.83C8.23 32.44 8.99 31.62 10 30.83C11.02 30.03 12.73 28.73 14.71 28.05C16.69 27.37 19.51 27.08 21.89 26.74C24.26 26.41 27.79 26.14 28.97 26.02" stroke="#f3f0e8" stroke-width="2.2" stroke-linecap="round" stroke-linejoin="round"></path>
  <path d="M28.55 24.65C27.37 24.77 23.9 25.21 21.47 25.37C19.04 25.52 16.22 25.81 13.96 25.56C11.69 25.32 9.32 24.44 7.9 23.89C6.47 23.34 5.28 22.72 5.41 22.28C5.54 21.84 7.03 21.49 8.69 21.26C10.36 21.03 13.11 20.67 15.38 20.89C17.65 21.11 20.12 21.94 22.32 22.57C24.52 23.19 27.51 24.3 28.55 24.65" stroke="#f3f0e8" stroke-width="2.2" stroke-linecap="round" stroke-linejoin="round"></path>
  <path d="M29.75 23.44C28.71 23.1 25.56 22.14 23.53 21.35C21.49 20.56 19.01 19.74 17.55 18.71C16.09 17.67 15.25 16.11 14.77 15.16C14.28 14.21 14.06 13.29 14.64 13C15.23 12.72 16.76 13.01 18.29 13.45C19.82 13.89 22.32 14.64 23.82 15.65C25.32 16.67 26.29 18.23 27.28 19.53C28.27 20.83 29.34 22.79 29.75 23.44" stroke="#f3f0e8" stroke-width="2.2" stroke-linecap="round" stroke-linejoin="round"></path>
  <circle cx="32" cy="25" r="2.6" fill="#E0A81C"></circle>
</svg>
