<svg xmlns="http://www.w3.org/2000/svg" viewBox="0 0 64 64" width="512" height="512" fill="none" role="img" aria-label="Uvularia">
  <rect width="64" height="64" fill="#0e2b1a"></rect>
  <path d="M16 60C14 42 20 18 38 11C45 8.5 50 12 50 19" stroke="#f3f0e8" stroke-width="2.2" stroke-linecap="round" stroke-linejoin="round"></path>
  <ellipse cx="18.2" cy="41" rx="11" ry="4.4" stroke="#f3f0e8" stroke-width="2.2" transform="rotate(-62 18.2 41)"></ellipse>
  <ellipse cx="28" cy="17.5" rx="9" ry="3.6" stroke="#f3f0e8" stroke-width="2.2" transform="rotate(-38 28 17.5)"></ellipse>
  <path d="M50 20C44.5 25 42.5 35 43.5 45.5" stroke="#f3f0e8" stroke-width="2.2" stroke-linecap="round" stroke-linejoin="round"></path>
  <path d="M50 20C55.5 25 57.5 35 56.5 45.5" stroke="#f3f0e8" stroke-width="2.2" stroke-linecap="round" stroke-linejoin="round"></path>
  <path d="M50 21C48.5 30 51.5 38 50 47" stroke="#cdd6d0" stroke-width="1.4" stroke-linecap="round" stroke-linejoin="round"></path>
  <circle cx="45.5" cy="50.5" r="1.6" fill="#E0A81C"></circle>
  <circle cx="50" cy="51.5" r="1.6" fill="#E0A81C"></circle>
  <circle cx="54.5" cy="50.5" r="1.6" fill="#E0A81C"></circle>
</svg>
