<svg xmlns="http://www.w3.org/2000/svg" viewBox="0 0 64 64" width="32" height="32">
  <rect width="64" height="64" rx="14" fill="#0e2b1a"></rect>
  <g fill="none" stroke="#f3f0e8" stroke-width="2.2" stroke-linejoin="round">
    <path d="M32 31C24 31 19 26 19 18C19 10 25 5 32 5C39 5 45 10 45 18C45 26 40 31 32 31Z"></path>
    <path d="M32 31C24 31 19 26 19 18C19 10 25 5 32 5C39 5 45 10 45 18C45 26 40 31 32 31Z" transform="rotate(72 32 32)"></path>
    <path d="M32 31C24 31 19 26 19 18C19 10 25 5 32 5C39 5 45 10 45 18C45 26 40 31 32 31Z" transform="rotate(144 32 32)"></path>
    <path d="M32 31C24 31 19 26 19 18C19 10 25 5 32 5C39 5 45 10 45 18C45 26 40 31 32 31Z" transform="rotate(216 32 32)"></path>
    <path d="M32 31C24 31 19 26 19 18C19 10 25 5 32 5C39 5 45 10 45 18C45 26 40 31 32 31Z" transform="rotate(288 32 32)"></path>
  </g>
  <g fill="#E0A81C">
    <circle cx="32" cy="10" r="2.6"></circle>
    <circle cx="32" cy="10" r="2.6" transform="rotate(72 32 32)"></circle>
    <circle cx="32" cy="10" r="2.6" transform="rotate(144 32 32)"></circle>
    <circle cx="32" cy="10" r="2.6" transform="rotate(216 32 32)"></circle>
    <circle cx="32" cy="10" r="2.6" transform="rotate(288 32 32)"></circle>
  </g>
  <circle cx="32" cy="32" r="4.6" fill="#0e2b1a" stroke="#f3f0e8" stroke-width="1.4"></circle>
</svg>
