<svg xmlns="http://www.w3.org/2000/svg" viewBox="0 0 64 64" width="512" height="512">
  <rect width="64" height="64" fill="#0e2b1a"></rect>
  <g fill="none" stroke="#f3f0e8" stroke-width="2.2" stroke-linejoin="round">
    <path d="M32 31C24 31 19 26 19 18C19 10 25 5 32 5C39 5 45 10 45 18C45 26 40 31 32 31Z"></path>
    <path d="M32 31C24 31 19 26 19 18C19 10 25 5 32 5C39 5 45 10 45 18C45 26 40 31 32 31Z" transform="rotate(72 32 32)"></path>
    <path d="M32 31C24 31 19 26 19 18C19 10 25 5 32 5C39 5 45 10 45 18C45 26 40 31 32 31Z" transform="rotate(144 32 32)"></path>
    <path d="M32 31C24 31 19 26 19 18C19 10 25 5 32 5C39 5 45 10 45 18C45 26 40 31 32 31Z" transform="rotate(216 32 32)"></path>
    <path d="M32 31C24 31 19 26 19 18C19 10 25 5 32 5C39 5 45 10 45 18C45 26 40 31 32 31Z" transform="rotate(288 32 32)"></path>
  </g>
  <g stroke="#cdd6d0" stroke-width="1.4" stroke-linecap="round" fill="none">
    <path d="M32 31C31 24 33 17 32 11"></path>
    <path d="M32 31C31 27 33 23 32 19" transform="rotate(36 32 32)"></path>
    <path d="M32 31C31 24 33 17 32 11" transform="rotate(72 32 32)"></path>
    <path d="M32 31C31 27 33 23 32 19" transform="rotate(108 32 32)"></path>
    <path d="M32 31C31 24 33 17 32 11" transform="rotate(144 32 32)"></path>
    <path d="M32 31C31 27 33 23 32 19" transform="rotate(180 32 32)"></path>
    <path d="M32 31C31 24 33 17 32 11" transform="rotate(216 32 32)"></path>
    <path d="M32 31C31 27 33 23 32 19" transform="rotate(252 32 32)"></path>
    <path d="M32 31C31 24 33 17 32 11" transform="rotate(288 32 32)"></path>
    <path d="M32 31C31 27 33 23 32 19" transform="rotate(324 32 32)"></path>
  </g>
  <g fill="#E0A81C">
    <circle cx="32" cy="10" r="2.3"></circle>
    <circle cx="32" cy="18" r="2.3" transform="rotate(36 32 32)"></circle>
    <circle cx="32" cy="10" r="2.3" transform="rotate(72 32 32)"></circle>
    <circle cx="32" cy="18" r="2.3" transform="rotate(108 32 32)"></circle>
    <circle cx="32" cy="10" r="2.3" transform="rotate(144 32 32)"></circle>
    <circle cx="32" cy="18" r="2.3" transform="rotate(180 32 32)"></circle>
    <circle cx="32" cy="10" r="2.3" transform="rotate(216 32 32)"></circle>
    <circle cx="32" cy="18" r="2.3" transform="rotate(252 32 32)"></circle>
    <circle cx="32" cy="10" r="2.3" transform="rotate(288 32 32)"></circle>
    <circle cx="32" cy="18" r="2.3" transform="rotate(324 32 32)"></circle>
  </g>
  <circle cx="32" cy="32" r="4.4" fill="#0e2b1a" stroke="#f3f0e8" stroke-width="1.4"></circle>
</svg>
